Coordinates
version=1
nRows=27
nColumns=12
inDegrees=yes

Units are S.I. units (second, meters, Newtons, ...)
Angles are in degrees

endheader
time	SC_y	SC_z	SC_x	AC_y	AC_z	AC_x	GH_y	GH_z	GH_yy	EL_x	PS_y
       0.0              -27.16          6.738          60.24          46.01         -3.519          3.528         -108.7        -0.6287         -101.5          73.11           8.87
   0.01739              -27.16          6.737          60.24          46.01         -3.517          3.528         -108.6        -0.6241         -101.4          73.11          8.886
   0.03479              -27.16          6.736          60.24          46.02         -3.515          3.527         -108.6        -0.6192         -101.4           73.1          8.903
   0.05218              -27.17          6.736          60.23          46.02         -3.513          3.527         -108.6         -0.614         -101.4          73.09          8.921
   0.06958              -27.17          6.735          60.23          46.02         -3.511          3.526         -108.6        -0.6084         -101.3          73.09           8.94
   0.08697              -27.18          6.734          60.23          46.02         -3.508          3.526         -108.6        -0.6025         -101.3          73.08           8.96
    0.1044              -27.18          6.733          60.22          46.02         -3.506          3.525         -108.6        -0.5962         -101.2          73.07          8.982
    0.1218              -27.18          6.732          60.22          46.02         -3.503          3.525         -108.5        -0.5894         -101.2          73.06          9.005
    0.1392              -27.19          6.731          60.22          46.02           -3.5          3.524         -108.5        -0.5822         -101.1          73.05           9.03
    0.1566              -27.19           6.73          60.21          46.03         -3.497          3.524         -108.5        -0.5744         -101.1          73.04          9.057
    0.1739               -27.2          6.729          60.21          46.03         -3.493          3.523         -108.5        -0.5661         -101.0          73.03          9.086
    0.1913              -27.21          6.727           60.2          46.03          -3.49          3.522         -108.4        -0.5571         -101.0          73.01          9.117
    0.2087              -27.21          6.726           60.2          46.03         -3.486          3.521         -108.4        -0.5474         -100.9           73.0           9.15
    0.2261              -27.22          6.724          60.19          46.03         -3.481          3.521         -108.4         -0.537         -100.8          72.99          9.186
    0.2435              -27.23          6.723          60.19          46.04         -3.477           3.52         -108.3        -0.5257         -100.8          72.97          9.225
    0.2609              -27.24          6.721          60.18          46.04         -3.472          3.519         -108.3        -0.5134         -100.7          72.95          9.267
    0.2783              -27.24          6.719          60.17          46.04         -3.466          3.518         -108.2        -0.5001         -100.6          72.94          9.313
    0.2957              -27.25          6.717          60.16          46.05          -3.46          3.517         -108.2        -0.4855         -100.5          72.92          9.363
    0.3131              -27.27          6.715          60.16          46.05         -3.454          3.515         -108.1        -0.4697         -100.4          72.89          9.417
    0.3305              -27.28          6.712          60.15          46.05         -3.447          3.514         -108.1        -0.4523         -100.3          72.87          9.477
    0.3479              -27.29          6.709          60.14          46.06         -3.439          3.512         -108.0        -0.4333         -100.1          72.84          9.543
    0.3653               -27.3          6.706          60.13          46.06         -3.431          3.511         -108.0        -0.4123         -99.99          72.81          9.615
    0.3827              -27.32          6.703          60.11          46.07         -3.421          3.509         -107.9        -0.3891         -99.84          72.78          9.694
    0.4001              -27.34          6.699           60.1          46.07         -3.411          3.507         -107.8        -0.3634         -99.66          72.75          9.783
    0.4175              -27.36          6.695          60.08          46.08         -3.399          3.505         -107.7        -0.3349         -99.47          72.71          9.881
    0.4349              -27.38          6.691          60.07          46.09         -3.386          3.502         -107.6         -0.303         -99.25          72.66           9.99
    0.4523               -27.4          6.685          60.05          46.09         -3.371          3.499         -107.5        -0.2673         -99.01          72.61          10.11
